<svg width="28" height="28" viewBox="0 0 28 28" fill="none" xmlns="http://www.w3.org/2000/svg">
<path d="M3.48133 24.5469H2.30066V26.32H7.02333V24.5469H6.111M3.48133 24.5469L6.64766 20.2484M3.48133 24.5469H6.111M6.64766 20.2484H9.27733M6.64766 20.2484H3.48133C3.48133 20.2484 2.51533 20.2484 1.8445 19.6842C1.17366 19.12 1.12 18.2066 1.12 18.2066V11.4901C1.12 11.4901 1.12 10.6842 1.8445 10.1469C2.569 9.60955 3.48133 9.71701 3.48133 9.71701L4.018 9.85011M9.27733 20.2484L6.111 24.5469M9.27733 20.2484H16.6297M24.304 24.5469H25.5383V26.32H20.8157V24.5469H21.6743M24.304 24.5469L21.1377 20.2484M24.304 24.5469H21.6743M21.1377 20.2484H20.8157M21.1377 20.2484H23.0428M21.6743 24.5469L18.508 20.2484M18.508 20.2484H16.6297M18.508 20.2484H18.8837M18.508 13.4437L16.6297 20.2484M18.508 13.4437L19.5277 13.6966M18.508 13.4437L6.111 10.3692M18.8837 20.2484L20.5473 13.9495M18.8837 20.2484H20.8157M20.5473 13.9495L19.5277 13.6966M20.5473 13.9495L21.3523 14.1491M22.3183 14.3887L20.8157 20.2484M22.3183 14.3887L24.465 14.9211M22.3183 14.3887L21.3523 14.1491M24.465 14.9211L26.88 15.52V18.2066C26.88 18.2066 26.88 19.0125 26.2897 19.6036C25.6993 20.1946 24.948 20.2484 24.948 20.2484H23.0428M24.465 14.9211L23.0428 20.2484M6.433 15.1439L6.111 14.8215L9.27733 17.9916L10.9947 18.2066M19.5277 13.6966L21.889 5.36477M21.889 5.36477H20.279M21.889 5.36477H23.7137M20.279 5.36477L25.27 1.12V5.36477H23.7137M20.279 5.36477L19.2593 3.91403H17.6493M23.7137 5.36477L21.3523 14.1491M4.984 6.4394H3.857C3.857 6.4394 2.569 6.17074 2.62266 4.72C2.67633 3.26925 4.018 3.21552 4.018 3.21552L9.009 3.91403V5.5797C9.009 5.5797 8.90166 6.00955 8.687 6.22447C8.47233 6.4394 7.98933 6.4394 7.98933 6.4394H7.238M4.984 6.4394L4.018 9.85011M4.984 6.4394H7.238M4.018 9.85011L6.111 10.3692M6.111 10.3692L7.238 6.4394M6.433 12.5648C5.01031 12.5648 3.857 13.7195 3.857 15.1439C3.857 16.5683 5.01031 17.723 6.433 17.723C7.85568 17.723 9.009 16.5683 9.009 15.1439C9.009 13.7195 7.85568 12.5648 6.433 12.5648Z" stroke="#D9D9D9" stroke-width="0.8" stroke-linecap="round" stroke-linejoin="round"/>
</svg>
