<svg width="28" height="28" viewBox="0 0 28 28" fill="none" xmlns="http://www.w3.org/2000/svg">
<g clip-path="url(#clip0_67_4)">
<path d="M8.69026 11.9518H19.6379M8.69026 11.9518L8.69024 6.59447L5.42921 6.59447L5.4292 9.8555M8.69026 11.9518L8.69021 16.3775M19.6379 11.9518L19.6379 16.3775M19.6379 11.9518L19.6379 6.59447L22.8989 6.59447L22.8989 9.8555M5.4292 9.8555L2.16817 9.85551L2.16819 18.4739L5.42924 18.4739M5.4292 9.8555L5.42924 18.4739M8.69021 16.3775H19.6379M8.69021 16.3775V21.7349L5.42917 21.7349L5.42924 18.4739M19.6379 16.3775V21.7349L22.899 21.7349L22.8989 18.4739M22.8989 9.8555L26.16 9.85551L26.1599 18.4739L22.8989 18.4739M22.8989 9.8555L22.8989 18.4739" stroke="#D9D9D9"/>
</g>
<defs>
<clipPath id="clip0_67_4">
<rect width="28" height="28" fill="white"/>
</clipPath>
</defs>
</svg>
