<svg width="28" height="28" viewBox="0 0 28 28" fill="none" xmlns="http://www.w3.org/2000/svg">
<path d="M8.72937 16.4705L16.4705 8.72937M8.72937 16.4705L4.94114 12.6823L2.63525 14.9882L4.94114 17.2941M8.72937 16.4705L11.8588 19.6M16.4705 8.72937L19.6 11.8588M16.4705 8.72937L12.6823 4.94114L14.9882 2.63525L17.2941 4.94114M19.6 11.8588L11.8588 19.6M19.6 11.8588L23.3882 15.647L25.6941 13.3411L23.3882 11.0353M11.8588 19.6L15.647 23.3882L13.3411 25.6941L11.0353 23.3882M4.94114 17.2941L2.63525 19.6L8.72937 25.6941L11.0353 23.3882M4.94114 17.2941L11.0353 23.3882M17.2941 4.94114L19.6 2.63525L25.6941 8.72937L23.3882 11.0353M17.2941 4.94114L23.3882 11.0353" stroke="#D9D9D9"/>
</svg>
