<svg width="28" height="28" viewBox="0 0 28 28" fill="none" xmlns="http://www.w3.org/2000/svg">
<path d="M16.9553 19.6156H14.7085C14.607 17.5463 13.4224 15.8068 11.7079 14.9215C10.9281 14.5188 10.0387 14.2928 9.09172 14.2928C6.06259 14.2928 3.62257 16.6051 3.4749 19.6156H1.22817M16.9553 19.6156C16.9553 17.653 16.2291 15.8592 15.0295 14.4856M16.9553 19.6156C16.9553 19.9334 16.9362 20.2468 16.8992 20.5547M1.22817 19.6156C1.22817 23.9369 4.7488 27.4401 9.09172 27.4401C13.1152 27.4401 16.433 24.4333 16.8992 20.5547M1.22817 19.6156C1.22817 17.653 1.95435 15.8592 3.15394 14.4856M13.2642 12.9822C12.0549 12.2275 10.6245 11.7911 9.09172 11.7911C7.60387 11.7911 6.21254 12.2023 5.02621 12.9166M13.2642 12.9822C13.3369 13.0276 13.4089 13.0741 13.48 13.1218C14.055 13.5073 14.5761 13.9664 15.0295 14.4856M13.2642 12.9822C13.2642 12.9822 13.5027 12.8822 13.7859 12.667C14.1996 12.3527 14.7085 11.7926 14.7085 10.9395C14.7085 10.7172 14.674 10.5292 14.6155 10.3704C14.2963 9.50232 13.2642 9.50232 13.2642 9.50232H12.389H5.02621C5.02621 9.50232 3.68887 9.71523 3.58189 10.9395C3.4749 12.1637 5.02621 12.9166 5.02621 12.9166M5.02621 12.9166C4.32242 13.3404 3.69077 13.8709 3.15394 14.4856M15.0295 14.4856C15.0295 14.4856 15.576 14.1016 16.1167 13.4581M3.15394 14.4856C3.15394 14.4856 1.06305 12.9822 1.12119 10.9395C1.22819 7.21352 5.02621 7.05384 5.02621 7.05384H12.4438M14.7085 22.0641C14.7085 22.0641 13.5322 23.7141 12.3548 24.3529C11.1774 24.9916 9.09172 25.1513 9.09172 25.1513M27.226 13.1218C27.226 17.4431 23.7054 20.9463 19.3625 20.9463C18.5021 20.9463 17.674 20.8088 16.8992 20.5547M27.226 13.1218H24.9793C24.8316 10.1113 22.3916 7.79903 19.3625 7.79903C18.2717 7.79903 17.2574 8.09884 16.3989 8.62309M27.226 13.1218C27.226 11.1592 26.4998 9.36538 25.3003 7.99184M23.535 6.48844C22.3257 5.73371 20.8953 5.29733 19.3625 5.29733C17.8746 5.29733 16.4833 5.70849 15.297 6.42284M23.535 6.48844C23.535 6.48844 24.9793 5.88283 24.9793 4.44568C24.9793 3.00853 23.535 3.00853 23.535 3.00853H15.297C15.297 3.00853 13.9596 3.22144 13.8526 4.44568C13.7457 5.66992 15.297 6.42284 15.297 6.42284M23.535 6.48844C24.1959 6.90091 24.7908 7.40847 25.3003 7.99184M15.297 6.42284C14.8981 6.663 14.5225 6.93743 14.1741 7.24203M25.3003 7.99184C25.3003 7.99184 27.44 6.48844 27.44 4.44568C27.44 0.899528 23.535 0.560059 23.535 0.560059H15.297C15.297 0.560059 11.4989 0.719742 11.3919 4.44568C11.3618 5.50487 11.9094 6.41906 12.4438 7.05384M24.9793 15.5703C24.9793 15.5703 23.803 17.2203 22.6256 17.8591C21.4482 18.4978 19.3625 18.6575 19.3625 18.6575M12.4438 7.05384H13.2642C13.2642 7.05384 13.6476 7.08717 14.1741 7.24203M14.1741 7.24203C14.8492 7.44059 15.7597 7.83897 16.3989 8.62309M16.3989 8.62309C16.8192 9.13852 17.1222 9.82062 17.1642 10.7222M17.1642 10.7222C17.1675 10.7932 17.1692 10.8657 17.1692 10.9395C17.1692 11.9498 16.6458 12.8283 16.1167 13.4581M17.1642 10.7222C17.7442 10.1959 18.5157 9.87491 19.3625 9.87491C21.1646 9.87491 22.6256 11.3286 22.6256 13.1218C22.6256 14.915 21.1646 16.3687 19.3625 16.3687C17.6744 16.3687 16.2858 15.0933 16.1167 13.4581M9.09172 16.3687C10.8939 16.3687 12.3548 17.8224 12.3548 19.6156C12.3548 21.4088 10.8939 22.8625 9.09172 22.8625C7.28955 22.8625 5.82862 21.4088 5.82862 19.6156C5.82862 17.8224 7.28955 16.3687 9.09172 16.3687Z" stroke="#D9D9D9" stroke-width="0.8" stroke-linecap="round" stroke-linejoin="round"/>
</svg>
